<svg xmlns="http://www.w3.org/2000/svg" viewBox="0 0 100 100">
  <!-- LETTER C — left half 0-46 -->
  <!-- Top bar -->
  <rect x="0" y="0" width="46" height="18" fill="#4a7ab5"/>
  <polygon points="0,0 22,0 0,18" fill="#48a844"/>
  <polygon points="22,0 46,0 46,9" fill="#e54848"/>
  <polygon points="46,9 46,18 34,18" fill="#e07820"/>
  <!-- Left bar (middle section) -->
  <rect x="0" y="18" width="18" height="64" fill="#4a7ab5"/>
  <polygon points="0,18 18,28 0,38" fill="#e07820"/>
  <polygon points="0,38 18,50 0,60" fill="#e54848"/>
  <polygon points="0,60 18,70 0,82" fill="#48a844"/>
  <!-- Bottom bar -->
  <rect x="0" y="82" width="46" height="18" fill="#e07820"/>
  <polygon points="0,82 22,82 0,100" fill="#48a844"/>
  <polygon points="22,82 46,82 46,91" fill="#4a7ab5"/>
  <polygon points="46,91 46,100 34,100" fill="#e54848"/>

  <!-- LETTER B — right half 54-100 -->
  <!-- Left bar -->
  <rect x="54" y="0" width="16" height="100" fill="#4a7ab5"/>
  <polygon points="54,0 70,14 54,26" fill="#48a844"/>
  <polygon points="54,26 70,40 54,54" fill="#e07820"/>
  <polygon points="54,54 70,68 54,82" fill="#e54848"/>
  <!-- Top bump -->
  <rect x="70" y="0" width="30" height="46" fill="#48a844"/>
  <polygon points="70,0 100,20 70,20" fill="#e54848"/>
  <polygon points="100,20 100,46 82,36" fill="#4a7ab5"/>
  <polygon points="70,20 100,46 70,46" fill="#e07820"/>
  <!-- Bottom bump -->
  <rect x="70" y="54" width="30" height="46" fill="#e07820"/>
  <polygon points="70,54 100,74 70,74" fill="#e54848"/>
  <polygon points="100,74 100,100 82,90" fill="#4a7ab5"/>
  <polygon points="70,74 100,100 70,100" fill="#48a844"/>
</svg>
